<svg width="75" height="16" viewBox="0 0 75 16" xmlns="http://www.w3.org/2000/svg" data-testid="subscription-pro-full-logo"><path fill-rule="evenodd" d="M74.1368 0L71.9624 16L45.9988 15.9989L47.0012 11.2202H47.0337C47.2269 11.6271 47.5496 11.9487 48.0002 12.1848C48.4508 12.4206 48.955 12.5393 49.5118 12.5393C50.1126 12.5393 50.674 12.4346 51.1947 12.226C51.7157 12.0171 52.1793 11.7289 52.585 11.3601C52.9913 10.9922 53.3315 10.5584 53.6057 10.0583C53.8796 9.5578 54.0704 9.01677 54.1782 8.43397C54.2748 7.86297 54.2742 7.3271 54.1767 6.82695C54.0795 6.32679 53.8922 5.88992 53.6159 5.51602C53.3393 5.14242 52.9751 4.85117 52.5233 4.64226C52.0718 4.43367 51.5454 4.32922 50.9446 4.32922C50.4199 4.32922 49.8914 4.44487 49.3592 4.67527C48.9152 4.86777 48.5298 5.12481 48.203 5.44693L48.014 5.64802H47.9809L48.1676 4.52722H46.6924L44.5229 15.9989L41.2015 16L43.3916 0H74.1368ZM3.99816 4.3455C6.16414 4.3455 7.99692 5.99703 7.99692 8.39183C7.99692 10.7863 6.16414 12.4378 3.99816 12.4378C3.18185 12.4378 2.33244 12.1072 1.83248 11.6122L1.7494 11.5296L1.64977 11.6122V15.5826H0V4.51051H1.49957L1.64977 5.17112L1.7494 5.25377L1.83248 5.17112C2.33244 4.67581 3.1656 4.3455 3.99816 4.3455ZM66.2693 4.32903C65.6902 4.32903 65.1319 4.43651 64.5949 4.65056C64.057 4.86491 63.5691 5.15919 63.1299 5.53249C62.6908 5.90639 62.3206 6.34054 62.0193 6.83524C61.7177 7.32994 61.5193 7.86279 61.4227 8.43409C61.3155 9.00569 61.327 9.54157 61.4573 10.0417C61.5873 10.5419 61.8043 10.976 62.1087 11.3436C62.4127 11.7123 62.7985 12.0033 63.2663 12.2179C63.7343 12.432 64.2575 12.5394 64.8369 12.5394C65.416 12.5394 65.9744 12.432 66.512 12.2179C67.0489 12.0033 67.5375 11.7123 67.9763 11.3436C68.4155 10.976 68.7827 10.5419 69.0786 10.0417C69.3745 9.54157 69.5761 9.00569 69.6836 8.43409C69.7799 7.86279 69.7651 7.32994 69.6408 6.83524C69.5156 6.34054 69.2986 5.90639 68.9895 5.53249C68.68 5.15919 68.2942 4.86491 67.8315 4.65056C67.3692 4.43651 66.8485 4.32903 66.2693 4.32903ZM32.6266 1.02819V12.2725H31.1268L30.9606 11.6122L30.8769 11.5295L30.7942 11.6122C30.2942 12.1075 29.4611 12.4378 28.6285 12.4378C26.4625 12.4378 24.6297 10.7863 24.6297 8.3918C24.6297 5.997 26.4625 4.34547 28.6285 4.34547C29.4448 4.34547 30.2942 4.67578 30.7942 5.17078L30.8769 5.25374L30.9606 5.17078V1.02819H32.6266ZM12.0364 4.31244C14.1379 4.31244 15.1884 5.33909 15.1884 7.4066V12.2725H13.8087L13.6518 11.2467C13.1028 12.0082 12.2874 12.3972 11.2053 12.3972C9.80959 12.3972 8.77446 11.5731 8.77446 10.0185C8.77446 8.4172 10.1392 7.45353 12.1932 7.45353H13.5576V7.11141C13.5576 6.17863 12.9147 5.74326 12.0207 5.74326C11.2995 5.74326 10.8131 6.08538 10.5467 6.78474L9.0568 6.47381C9.38639 5.15229 10.5311 4.31244 12.0364 4.31244ZM37.2127 4.31244C39.3142 4.31244 40.3647 5.33909 40.3647 7.4066V12.2725H38.9849L38.8281 11.2467C38.2791 12.0082 37.4637 12.3972 36.3819 12.3972C34.9859 12.3972 33.9507 11.5731 33.9507 10.0185C33.9507 8.4172 35.3155 7.45353 37.3695 7.45353H38.7339V7.11141C38.7339 6.17863 38.091 5.74326 37.197 5.74326C36.4758 5.74326 35.9897 6.08538 35.723 6.78474L34.2331 6.47381C34.5627 5.15229 35.7074 4.31244 37.2127 4.31244ZM60.5818 4.32925C60.09 4.32925 59.6048 4.45852 59.1259 4.71647C58.7157 4.93809 58.3835 5.21798 58.1294 5.55653L58.0089 5.7307H57.9764L58.1819 4.52725H56.7071L55.3541 12.3414H56.829L57.5059 8.41795C57.6558 7.56055 57.9565 6.9287 58.4077 6.5218C58.8586 6.1152 59.4452 5.91175 60.1661 5.91175C60.2865 5.91175 60.4036 5.92295 60.5174 5.94505L60.6903 5.9821L60.8669 6.0271L61.2175 4.42825C61.0339 4.36225 60.822 4.32925 60.5818 4.32925ZM20.3907 4.34538C22.3896 4.34538 23.5557 5.6663 23.5557 7.48283V12.273H21.8896V7.48283C21.8397 6.42622 21.3235 5.83161 20.2239 5.83161C19.2409 5.83161 18.4252 6.62392 18.3914 7.58214V12.273H16.7257V4.51038H18.2247L18.3914 5.1713L18.4751 5.25365L18.5582 5.1713C18.8911 4.67569 19.7243 4.34538 20.3907 4.34538ZM50.5193 5.71402C50.9127 5.71402 51.2543 5.78305 51.5448 5.92019C51.8352 6.05764 52.0718 6.24444 52.2548 6.48059C52.4375 6.71705 52.5585 7.00254 52.6184 7.338C52.6777 7.67345 52.6732 8.03857 52.6049 8.43397C52.5362 8.82997 52.4116 9.1954 52.231 9.53025C52.0495 9.866 51.8295 10.1515 51.5697 10.3876C51.3103 10.6244 51.0117 10.8112 50.6737 10.948C50.3356 11.0858 49.9699 11.1545 49.5765 11.1545C49.1834 11.1545 48.8385 11.0858 48.5429 10.948C48.247 10.8112 48.0104 10.6244 47.8328 10.3876C47.6553 10.1515 47.537 9.866 47.478 9.53025C47.4181 9.1954 47.4226 8.82997 47.4909 8.43397C47.5595 8.03857 47.6814 7.67345 47.8569 7.338C48.0324 7.00254 48.2527 6.71705 48.5179 6.48059C48.7825 6.24444 49.0841 6.05764 49.4221 5.92019C49.7604 5.78305 50.1258 5.71402 50.5193 5.71402ZM66.0246 5.71414C66.418 5.71414 66.7597 5.78286 67.0501 5.92001C67.3406 6.05746 67.5772 6.24457 67.7599 6.48071C67.9429 6.71717 68.0642 7.00236 68.1238 7.33812C68.1828 7.67327 68.1786 8.03839 68.11 8.43409C68.0416 8.83009 67.917 9.19552 67.7361 9.53037C67.5552 9.86582 67.3346 10.1516 67.0754 10.3875C66.8154 10.6242 66.5168 10.8113 66.1787 10.9482C65.8407 11.0859 65.4753 11.1543 65.0819 11.1543C64.6885 11.1543 64.3442 11.0859 64.0483 10.9482C63.7524 10.8113 63.5158 10.6242 63.3382 10.3875C63.1606 10.1516 63.042 9.86582 62.9831 9.53037C62.9235 9.19552 62.9277 8.83009 62.9963 8.43409C63.0649 8.03839 63.1868 7.67327 63.362 7.33812C63.5378 7.00236 63.7578 6.71717 64.023 6.48071C64.2879 6.24457 64.5895 6.05746 64.9275 5.92001C65.2655 5.78286 65.6312 5.71414 66.0246 5.71414ZM13.5576 8.80593H12.1306C11.1271 8.80593 10.4998 9.27188 10.4998 10.0185C10.4998 10.5783 10.8447 10.9667 11.4877 10.9667C12.0364 10.9667 12.5225 10.7959 12.9303 10.4538C13.3538 10.0963 13.5576 9.61429 13.5576 8.97699V8.80593ZM38.7339 8.80593H37.3069C36.3033 8.80593 35.6761 9.27188 35.6761 10.0185C35.6761 10.5783 36.021 10.9667 36.6639 10.9667C37.2127 10.9667 37.6988 10.7959 38.1066 10.4538C38.5301 10.0963 38.7339 9.61429 38.7339 8.97699V8.80593ZM3.91539 5.83173C2.49919 5.83173 1.49957 6.98765 1.49957 8.39183C1.49957 9.7957 2.49919 10.9516 3.91539 10.9516C5.49773 10.9516 6.3306 9.7957 6.3306 8.39183C6.3306 6.98765 5.49773 5.83173 3.91539 5.83173ZM28.7116 5.8317C27.1286 5.8317 26.2792 6.98732 26.2792 8.3918C26.2792 9.79567 27.1286 10.9516 28.7116 10.9516C30.1275 10.9516 31.1268 9.79567 31.1268 8.3918C31.1268 6.98732 30.1275 5.8317 28.7116 5.8317Z" fill="#FF2B85"></path></svg>