<svg width="145px" height="149px" viewBox="0 0 145 149" version="1.1" xmlns="http://www.w3.org/2000/svg" xmlns:xlink="http://www.w3.org/1999/xlink" data-testid="subscription-savings-panda"><title>pandapro</title><g stroke="none" stroke-width="1" fill="none" fill-rule="evenodd"><g id="savingpanda" transform="translate(0.635376, 0.000000)"><path d="M119.166842,9.86704349e-05 C129.666284,9.86704349e-05 138.158625,8.67841009 138.158625,19.3747786 C138.158625,19.9130258 138.125555,20.4510264 138.092727,20.9557256 C138.059899,21.1575067 138.059899,21.3257398 138.026588,21.5275208 C138.026588,21.5948634 138.026588,21.6957539 137.99376,21.7630965 C137.960932,22.2677957 137.862206,22.7720017 137.763481,23.2429063 C137.730653,23.5455779 137.631686,23.8147015 137.566029,24.1176197 C137.500132,24.3864966 137.434476,24.6220723 137.368578,24.8574013 C137.302922,25.1265249 137.236783,25.3956485 137.138057,25.6312242 C136.940847,26.3036632 136.677257,26.9430476 136.38108,27.5483907 C136.183387,28.0192954 135.920038,28.4904467 135.689758,28.9611047 C135.65693,28.995146 135.65693,29.0619952 135.624102,29.0957898 C135.591515,29.1631324 135.557963,29.1966803 135.525135,29.2637762 C135.45972,29.3313655 135.426409,29.3984614 135.360994,29.4993519 C135.097646,29.9702566 134.800986,30.4076133 134.472463,30.84497 C134.373496,30.9794084 134.27477,31.1476415 134.142975,31.2823267 C133.879868,31.6523408 133.583208,31.9883136 133.287272,32.3250265 C133.188546,32.459465 133.056751,32.5939034 132.925197,32.7285886 L132.925197,32.7285886 L132.891887,32.7623832 C132.595709,33.0986027 132.332602,33.3677263 132.003114,33.6366032 C131.931664,33.7347803 131.840663,33.8282706 131.746041,33.9133738 C131.657453,33.7799776 131.568429,33.6469088 131.478976,33.5141664 C139.379012,45.324301 144,59.6069938 144,74.9926386 C144,115.629071 111.764491,148.571429 72,148.571429 C32.2355095,148.571429 -2.32787334e-13,115.629071 -2.32787334e-13,74.9926386 C-2.32787334e-13,59.6069938 4.62098764,45.324301 12.5220143,33.5149127 L12.2538385,33.9135218 C12.1594577,33.8284186 12.0682149,33.7349283 11.9962827,33.6365046 C11.6667947,33.3676276 11.4036871,33.098504 11.10751,32.7622845 L11.10751,32.7622845 L11.0749233,32.7284899 C10.9426454,32.5938047 10.8108502,32.4593663 10.7121245,32.3249278 C10.4161888,31.9884616 10.120253,31.6522421 9.85642129,31.282228 C9.72462611,31.1475429 9.62638318,30.9793098 9.52765748,30.8448713 C9.19816951,30.4077613 8.9022338,29.9704046 8.63840204,29.4992532 C8.57298722,29.3986094 8.54015911,29.3312668 8.47402014,29.2639242 C8.44143341,29.1968284 8.40860531,29.1630337 8.37529444,29.0956912 C8.34246633,29.0618965 8.34246633,28.9950473 8.30963823,28.9612527 C8.07935873,28.490348 7.81600974,28.0191967 7.61831696,27.5482921 C7.32238124,26.9429489 7.05903225,26.3038112 6.86133948,25.6313722 C6.76237239,25.3957965 6.69695757,25.1266729 6.63081859,24.8575493 C6.564921,24.6219736 6.49926479,24.386398 6.43384996,24.117521 C6.36771098,23.8146028 6.2687439,23.5457259 6.2359158,23.2430543 C6.1371901,22.771903 6.03822302,22.2676971 6.0056363,21.7629978 C5.97280819,21.6956552 5.97280819,21.5947647 5.97280819,21.5274221 C5.93998009,21.3256411 5.93998009,21.157408 5.90666921,20.955627 C5.87384111,20.4511744 5.84125439,19.9129271 5.84125439,19.3746799 C5.84125439,8.67831142 14.3331127,-7.10542736e-15 24.8330373,-7.10542736e-15 C25.4251501,-7.10542736e-15 26.0177457,0.0337946239 26.6103413,0.10089052 C26.8406208,0.134685144 27.1039697,0.134685144 27.3344906,0.201781039 C27.8281191,0.235575663 28.2891609,0.336466183 28.7499613,0.437356703 C29.309246,0.538493898 29.9018416,0.706480314 30.4282981,0.874713405 C30.559852,0.908261353 30.6914058,0.942055977 30.7903728,0.975603925 C31.2840013,1.14383702 31.712215,1.31182343 32.172774,1.51360447 C32.2058435,1.51360447 32.2386716,1.54715242 32.2714997,1.54715242 C32.8312672,1.78297476 33.3577238,2.05185169 33.8515936,2.35452325 C34.312394,2.59009892 34.7401249,2.85922253 35.1680972,3.16189409 C35.2998924,3.22923666 35.3986181,3.29657923 35.4975852,3.39722307 C35.892488,3.66634668 36.3199775,3.96926492 36.6820522,4.3057311 C36.8138473,4.37307367 36.978712,4.47371752 37.1102658,4.67549856 C37.4723405,4.94462217 37.8011043,5.24729373 38.0975228,5.54996529 C38.2621461,5.68465043 38.3936999,5.8531302 38.492667,5.98732199 L38.492667,5.98732199 L38.5252537,6.02111661 C38.8547417,6.35733612 39.1506774,6.69404898 39.4470959,7.06381643 C39.8419987,7.53472108 40.2040733,8.03917368 40.5328372,8.54387295 C40.6163557,8.62823618 40.6745291,8.71284607 40.7300472,8.79745597 L40.6782313,8.72221749 C50.1481682,4.03933363 60.7740566,1.41384866 72,1.41384866 C83.2255474,1.41384866 93.8510821,4.03914838 103.320766,8.72172185 C103.36158,8.66317422 103.408116,8.60344958 103.466559,8.54372495 C103.795323,8.03927235 104.157398,7.53481975 104.552301,7.0639151 C104.848719,6.69390097 105.144896,6.35743479 105.474143,6.02121528 L105.474143,6.02121528 L105.507454,5.98742066 C105.605697,5.85298219 105.73725,5.6847491 105.902357,5.55006396 C106.198292,5.2473924 106.527539,4.94472084 106.889613,4.67559723 C107.021167,4.47381619 107.185791,4.37317234 107.317344,4.3055831 C107.679419,3.96936359 108.107391,3.66644535 108.502294,3.39732174 C108.600537,3.29643122 108.699504,3.22908865 108.831058,3.16199276 C109.259513,2.8593212 109.687003,2.59019759 110.147803,2.35462192 C110.641431,2.05195036 111.168612,1.78282675 111.727897,1.54725109 C111.760725,1.54725109 111.794036,1.51370314 111.826623,1.51370314 C112.287664,1.3119221 112.715395,1.14368901 113.209024,0.975702595 C113.307749,0.941907971 113.439545,0.908360023 113.571098,0.874565399 C114.097555,0.706578984 114.690151,0.538345893 115.249918,0.437455373 C115.710718,0.336564853 116.171277,0.235427658 116.664906,0.20187971 C116.895427,0.134783814 117.158534,0.134783814 117.389055,0.10098919 C117.981651,0.0336466183 118.574488,9.86704349e-05 119.166842,9.86704349e-05 Z M119.166842,5.6847491 C114.658529,5.6847491 110.671604,7.97217646 108.230738,11.4919975 L108.279296,11.4233494 C116.037049,16.0570194 122.870351,22.1312991 128.427832,29.2871161 C130.994884,26.773656 132.595709,23.2875939 132.595709,19.3747786 C132.595709,11.8065096 126.605304,5.6847491 119.166842,5.6847491 Z M24.8330373,5.68465043 C17.3940921,5.68465043 11.4036871,11.8064109 11.4036871,19.3746799 C11.4036871,23.2931296 13.0096091,26.7838429 15.5842015,29.2996923 L15.5721683,29.2871161 C21.1296494,22.1312991 27.9629508,16.0570194 35.7207045,11.4233494 C33.2765682,7.94279552 29.311921,5.68465043 24.8330373,5.68465043 Z" fill="#FFFFFF"></path><path d="M20.0961078,4.34352418 C20.0961078,4.34352418 8.9110068,8.93112406 9.97629758,16.6946336 C11.0415884,24.4583679 8.42809909,33.1042119 18.8782128,32.7514579 C29.3283265,32.3984792 41.8088682,15.9889009 38.2318243,10.3425896 C34.6547804,4.69627821 25.777508,2.75545699 20.0961078,4.34352418" fill="#D50365"></path><path d="M117.713637,4.13703052 C117.713637,4.13703052 103.214346,10.5675569 108.646524,16.7570371 C111.646658,20.1754438 111.333093,20.5386868 118.705701,28.5881438 C130.917991,41.9214842 139.177133,19.5740242 135.49943,13.5646111 C131.821494,7.55519806 123.554914,2.44683826 117.713637,4.13703052" fill="#D50365"></path><path d="M119.166842,9.86704349e-05 C129.666284,9.86704349e-05 138.158625,8.67841009 138.158625,19.3747786 C138.158625,19.9130258 138.125555,20.4510264 138.092727,20.9557256 C138.059899,21.1575067 138.059899,21.3257398 138.026588,21.5275208 C138.026588,21.5948634 138.026588,21.6957539 137.99376,21.7630965 C137.960932,22.2677957 137.862206,22.7720017 137.763481,23.2429063 C137.730653,23.5455779 137.631686,23.8147015 137.566029,24.1176197 C137.500132,24.3864966 137.434476,24.6220723 137.368578,24.8574013 C137.302922,25.1265249 137.236783,25.3956485 137.138057,25.6312242 C136.940847,26.3036632 136.677257,26.9430476 136.38108,27.5483907 C136.183387,28.0192954 135.920038,28.4904467 135.689758,28.9611047 C135.65693,28.995146 135.65693,29.0619952 135.624102,29.0957898 C135.591515,29.1631324 135.557963,29.1966803 135.525135,29.2637762 C135.45972,29.3313655 135.426409,29.3984614 135.360994,29.4993519 C135.097646,29.9702566 134.800986,30.4076133 134.472463,30.84497 C134.373496,30.9794084 134.27477,31.1476415 134.142975,31.2823267 C133.879868,31.6523408 133.583208,31.9883136 133.287272,32.3250265 C133.188546,32.459465 133.056751,32.5939034 132.925197,32.7285886 L132.925197,32.7285886 L132.891887,32.7623832 C132.595709,33.0986027 132.332602,33.3677263 132.003114,33.6366032 C131.931664,33.7347803 131.840663,33.8282706 131.746041,33.9133738 C131.657453,33.7799776 131.568429,33.6469088 131.478976,33.5141664 C139.379012,45.324301 144,59.6069938 144,74.9926386 C144,115.629071 111.764491,148.571429 72,148.571429 C32.2355095,148.571429 -2.32787334e-13,115.629071 -2.32787334e-13,74.9926386 C-2.32787334e-13,59.6069938 4.62098764,45.324301 12.5220143,33.5149127 L12.2538385,33.9135218 C12.1594577,33.8284186 12.0682149,33.7349283 11.9962827,33.6365046 C11.6667947,33.3676276 11.4036871,33.098504 11.10751,32.7622845 L11.10751,32.7622845 L11.0749233,32.7284899 C10.9426454,32.5938047 10.8108502,32.4593663 10.7121245,32.3249278 C10.4161888,31.9884616 10.120253,31.6522421 9.85642129,31.282228 C9.72462611,31.1475429 9.62638318,30.9793098 9.52765748,30.8448713 C9.19816951,30.4077613 8.9022338,29.9704046 8.63840204,29.4992532 C8.57298722,29.3986094 8.54015911,29.3312668 8.47402014,29.2639242 C8.44143341,29.1968284 8.40860531,29.1630337 8.37529444,29.0956912 C8.34246633,29.0618965 8.34246633,28.9950473 8.30963823,28.9612527 C8.07935873,28.490348 7.81600974,28.0191967 7.61831696,27.5482921 C7.32238124,26.9429489 7.05903225,26.3038112 6.86133948,25.6313722 C6.76237239,25.3957965 6.69695757,25.1266729 6.63081859,24.8575493 C6.564921,24.6219736 6.49926479,24.386398 6.43384996,24.117521 C6.36771098,23.8146028 6.2687439,23.5457259 6.2359158,23.2430543 C6.1371901,22.771903 6.03822302,22.2676971 6.0056363,21.7629978 C5.97280819,21.6956552 5.97280819,21.5947647 5.97280819,21.5274221 C5.93998009,21.3256411 5.93998009,21.157408 5.90666921,20.955627 C5.87384111,20.4511744 5.84125439,19.9129271 5.84125439,19.3746799 C5.84125439,8.67831142 14.3331127,-7.10542736e-15 24.8330373,-7.10542736e-15 C25.4251501,-7.10542736e-15 26.0177457,0.0337946239 26.6103413,0.10089052 C26.8406208,0.134685144 27.1039697,0.134685144 27.3344906,0.201781039 C27.8281191,0.235575663 28.2891609,0.336466183 28.7499613,0.437356703 C29.309246,0.538493898 29.9018416,0.706480314 30.4282981,0.874713405 C30.559852,0.908261353 30.6914058,0.942055977 30.7903728,0.975603925 C31.2840013,1.14383702 31.712215,1.31182343 32.172774,1.51360447 C32.2058435,1.51360447 32.2386716,1.54715242 32.2714997,1.54715242 C32.8312672,1.78297476 33.3577238,2.05185169 33.8515936,2.35452325 C34.312394,2.59009892 34.7401249,2.85922253 35.1680972,3.16189409 C35.2998924,3.22923666 35.3986181,3.29657923 35.4975852,3.39722307 C35.892488,3.66634668 36.3199775,3.96926492 36.6820522,4.3057311 C36.8138473,4.37307367 36.978712,4.47371752 37.1102658,4.67549856 C37.4723405,4.94462217 37.8011043,5.24729373 38.0975228,5.54996529 C38.2621461,5.68465043 38.3936999,5.8531302 38.492667,5.98732199 L38.492667,5.98732199 L38.5252537,6.02111661 C38.8547417,6.35733612 39.1506774,6.69404898 39.4470959,7.06381643 C39.8419987,7.53472108 40.2040733,8.03917368 40.5328372,8.54387295 C40.6163557,8.62823618 40.6745291,8.71284607 40.7300472,8.79745597 L40.6782313,8.72221749 C50.1481682,4.03933363 60.7740566,1.41384866 72,1.41384866 C83.2255474,1.41384866 93.8510821,4.03914838 103.320766,8.72172185 C103.36158,8.66317422 103.408116,8.60344958 103.466559,8.54372495 C103.795323,8.03927235 104.157398,7.53481975 104.552301,7.0639151 C104.848719,6.69390097 105.144896,6.35743479 105.474143,6.02121528 L105.474143,6.02121528 L105.507454,5.98742066 C105.605697,5.85298219 105.73725,5.6847491 105.902357,5.55006396 C106.198292,5.2473924 106.527539,4.94472084 106.889613,4.67559723 C107.021167,4.47381619 107.185791,4.37317234 107.317344,4.3055831 C107.679419,3.96936359 108.107391,3.66644535 108.502294,3.39732174 C108.600537,3.29643122 108.699504,3.22908865 108.831058,3.16199276 C109.259513,2.8593212 109.687003,2.59019759 110.147803,2.35462192 C110.641431,2.05195036 111.168612,1.78282675 111.727897,1.54725109 C111.760725,1.54725109 111.794036,1.51370314 111.826623,1.51370314 C112.287664,1.3119221 112.715395,1.14368901 113.209024,0.975702595 C113.307749,0.941907971 113.439545,0.908360023 113.571098,0.874565399 C114.097555,0.706578984 114.690151,0.538345893 115.249918,0.437455373 C115.710718,0.336564853 116.171277,0.235427658 116.664906,0.20187971 C116.895427,0.134783814 117.158534,0.134783814 117.389055,0.10098919 C117.981651,0.0336466183 118.574488,9.86704349e-05 119.166842,9.86704349e-05 Z M119.166842,5.6847491 C114.658529,5.6847491 110.671604,7.97217646 108.230738,11.4919975 L108.279296,11.4233494 C116.037049,16.0570194 122.870351,22.1312991 128.427832,29.2871161 C130.994884,26.773656 132.595709,23.2875939 132.595709,19.3747786 C132.595709,11.8065096 126.605304,5.6847491 119.166842,5.6847491 Z M24.8330373,5.68465043 C17.3940921,5.68465043 11.4036871,11.8064109 11.4036871,19.3746799 C11.4036871,23.2931296 13.0096091,26.7838429 15.5842015,29.2996923 L15.5721683,29.2871161 C21.1296494,22.1312991 27.9629508,16.0570194 35.7207045,11.4233494 C33.2765682,7.94279552 29.311921,5.68465043 24.8330373,5.68465043 Z" fill="#FFFFFF"></path><path d="M49.4843041,36.0295955 C51.6634799,36.0295955 53.4269103,37.8501294 53.4269103,40.0992245 C53.4269103,42.3480577 51.6634799,44.1688535 49.4843041,44.1688535 C47.3051283,44.1688535 45.540937,42.3480577 45.540937,40.0992245 C45.540937,37.8501294 47.3051283,36.0295955 49.4843041,36.0295955 M36.5482538,76.1903631 C41.7708182,76.1543831 44.3649785,73.40578 45.9909263,66.6946228 C47.616113,59.9832038 53.1159256,52.2722452 60.1379398,43.9903081 C67.1931832,35.7081092 59.9994425,27.7832628 59.9994425,27.7832628 C54.291884,20.0369616 39.7646372,22.6784898 33.1933732,27.1764181 C26.6558458,31.6387421 18.6658727,41.3485181 19.945831,54.6284151 C21.1905307,67.9080503 31.3251821,76.2258536 36.5482538,76.1903631" fill="#D50365"></path><path d="M80.393948,81.2333714 C89.2462088,81.246162 96.4124161,74.3126439 96.4001359,65.7469074 L79.8658297,65.7229839 L64.343248,65.7005243 C64.3555441,74.2662607 71.5416872,81.2205453 80.393948,81.2333714 Z" fill="#D50365" transform="translate(80.371692, 73.466948) scale(-1, 1) rotate(10.000000) translate(-80.371692, -73.466948) "></path><path d="M76.2081002,61.6976847 C77.4007044,62.0050597 89.9047619,58.0111877 89.9047619,52.4479012 C89.9047619,49.3761541 79.7859128,48.7619048 76.2081002,48.7619048 C72.6305527,48.7619048 62.4761905,49.3761541 62.4761905,52.4479012 C62.4761905,58.0111877 75.0160261,62.0050597 76.2081002,61.6976847" fill="#D50365"></path><path d="M103.345384,36.0295955 C105.524526,36.0295955 107.288183,37.8501294 107.288183,40.0992245 C107.288183,42.3480577 105.524526,44.1688535 103.345384,44.1688535 C101.166242,44.1688535 99.4020775,42.3480577 99.4020775,40.0992245 C99.4020775,37.8501294 101.166242,36.0295955 103.345384,36.0295955 M105.627763,66.6946228 C107.253686,73.40578 109.847806,76.1543831 115.071051,76.1903631 C120.293282,76.2258536 130.428031,67.9080503 131.673219,54.6284151 C132.953157,41.3485181 124.963307,31.6387421 118.42588,27.1764181 C111.85421,22.6784898 97.3269334,20.0369616 91.61997,27.7832628 C91.61997,27.7832628 84.4255792,35.7081092 91.4812213,43.9903081 C98.5028737,52.2722452 104.002602,59.9832038 105.627763,66.6946228" fill="#D50365"></path></g></g></svg>