<svg xmlns="http://www.w3.org/2000/svg" width="81" height="81" viewBox="0 0 81 81" fill="none" data-testid="discount-illu-default"><path fill="#FF2B85" fill-opacity=".1" fill-rule="evenodd" d="M19.89 29.68c7.03-3.8 11.12-10.66 18.38-13.62 11.02-4.5 21.67 5.41 23.32 16.34 3.9 25.94-40.72 40.73-49.69 12.2-2.45-7.8 1.86-11.6 7.99-14.92Z" clip-rule="evenodd"></path><path fill="#002B5B" d="M34.78 8.23c.52-.23 1.11.05 1.32.63l.35.95.83-.3c.51-.2 1.09 0 1.36.41l.08.15c.23.53-.05 1.12-.62 1.33l-.95.34.3.83c.2.52 0 1.1-.41 1.37l-.15.08c-.52.23-1.11-.05-1.32-.62l-.35-.95-.83.3c-.51.2-1.08 0-1.36-.42l-.08-.15c-.22-.52.05-1.11.62-1.32l.95-.35-.3-.83c-.2-.51 0-1.09.41-1.37l.15-.08Z"></path><path fill="#90B4DC" fill-rule="evenodd" d="M27.62 19.46a2.12 2.12 0 1 1-4.24.01 2.12 2.12 0 0 1 4.24 0Z" clip-rule="evenodd"></path><path fill="#FF2B85" fill-rule="evenodd" d="m16.04 13.33 6.66.42-2.48-6.33-4.18 5.9Z" clip-rule="evenodd"></path><path fill="#C2C2C2" fill-rule="evenodd" d="m20.36 32.64-5.01-.92.92-5.03 5 .92-.91 5.03Z" clip-rule="evenodd"></path><path fill="#C2C2C2" d="M44.86 23.14c.67-.93.74-1.64.58-2.9-.1-.74-.08-.96.18-1.32.25-.36.44-.44 1.17-.55 1.2-.2 1.84-.47 2.5-1.4.68-.92.75-1.63.58-2.89-.1-.75-.08-.97.18-1.32.34-.47.26-1.12-.18-1.46a.98.98 0 0 0-1.4.24c-.67.92-.74 1.63-.57 2.89.1.75.07.97-.18 1.32-.26.36-.45.44-1.18.56-1.2.19-1.84.46-2.5 1.4-.67.92-.75 1.63-.58 2.88.1.76.08.97-.18 1.33-.34.47-.25 1.12.18 1.45a.98.98 0 0 0 1.4-.23Z"></path><path fill="#C2C2C2" fill-rule="evenodd" d="m34.8 32.74 6.84 4.6c.9.6 1.49 1.58 1.6 2.67l1.67 17.2c.02.23.02.44 0 .65-6.2 2.56-13.2 3.2-19.28 1.3l-2.15-17.32a3.65 3.65 0 0 1 1.05-3.04l5.66-5.63a3.65 3.65 0 0 1 4.61-.43Zm-4.25 4.07a2.12 2.12 0 1 0 4.05 1.25 2.12 2.12 0 0 0-4.05-1.25Z" clip-rule="evenodd"></path><path fill="#002B5B" fill-rule="evenodd" d="m31.68 32.34-2.24 4.37c-.45.88-.53 1.9-.21 2.83l.11.3 8.83 20.09c-1.34.23-2.7.37-4.04.41l-7.35-16.73c-.45-1-.41-2.16.1-3.14l3.95-7.69c.27-.18.56-.33.85-.44Z" clip-rule="evenodd"></path><path fill="#FF2B85" fill-rule="evenodd" d="m38.18 25.4 10.15 3.24a3.65 3.65 0 0 1 2.27 2.09l8.47 20.57a3.65 3.65 0 0 1-1.93 4.74l-14.3 6.19a3.65 3.65 0 0 1-4.78-1.87l-9.15-20.7a3.65 3.65 0 0 1 .1-3.15l4.82-9.32a3.65 3.65 0 0 1 4.35-1.8Zm0 3.77a2.54 2.54 0 1 0 .01 5.1 2.54 2.54 0 0 0 0-5.1Z" clip-rule="evenodd"></path><path fill="#fff" d="M36.45 44.6a2.9 2.9 0 0 1-.1-2.35c.3-.74.88-1.31 1.77-1.7.89-.4 1.7-.46 2.45-.2.75.28 1.31.85 1.7 1.71l.29.66c.37.83.4 1.6.1 2.34-.29.73-.88 1.3-1.76 1.69-.88.4-1.7.46-2.45.2a2.92 2.92 0 0 1-1.71-1.7l-.3-.65Zm2.26-.13c.15.35.36.59.63.73.27.13.56.13.87 0 .63-.28.75-.87.35-1.75l-.26-.6a1.5 1.5 0 0 0-.63-.74.92.92 0 0 0-.86-.01.94.94 0 0 0-.56.64c-.08.29-.04.62.12.99l.34.74Zm7.76 4.96a2.88 2.88 0 0 1-.1-2.35c.3-.74.9-1.3 1.77-1.7.89-.39 1.7-.45 2.45-.2.74.27 1.31.84 1.7 1.73l.3.64c.36.84.4 1.62.1 2.35-.29.73-.88 1.3-1.77 1.7-.87.38-1.69.45-2.44.18a2.92 2.92 0 0 1-1.72-1.7l-.29-.65Zm2.26-.13c.14.31.36.54.65.7.3.14.58.16.86.04.58-.26.75-.7.53-1.34l-.45-1.02c-.15-.35-.36-.6-.63-.73a.94.94 0 0 0-.85-.01.94.94 0 0 0-.56.6c-.08.29-.05.6.09.95l.36.81Zm-4.4 3.84-1.8-.08 1.96-13.5 1.8.09-1.97 13.49Z"></path><path fill="#002B5B" d="M27.14 25.95c2.47-1.44 6.3.28 11.84 4.78.55.45.63 1.25.2 1.8-.45.54-1.25.63-1.8.19-4.71-3.83-7.82-5.23-8.96-4.57-.97.56-.8 2.37 1.16 5.81l.07.13c-.63.34-1.21.77-1.74 1.3l-.21.2c-.13-.09-.24-.21-.32-.36-2.57-4.52-2.87-7.74-.24-9.28Z"></path></svg>